<svg xmlns="http://www.w3.org/2000/svg" viewBox="0 0 70 70"><defs><linearGradient id="a" gradientUnits="userSpaceOnUse" x1="2.331" y1="60.25" x2="62.764" y2="13.538"><stop stop-color="#101034"/><stop offset="1" stop-color="#612d50"/></linearGradient></defs><path d="M70 60.595C70 65.789 65.79 70 60.597 70H9.403C4.21 70 0 65.79 0 60.595V9.403C0 4.211 4.21 0 9.403 0h51.192a9.403 9.403 0 0 1 9.403 9.403L70 60.595z" fill="url(#a)"/><path d="M16.833 13.08h20.442c11.57 0 14.07 8.224 14.07 11.471 0 6.567-3.724 8.247-5.584 9 2.825.797 7.406 3.206 7.406 11.559 0 2.388-.302 11.802-15.365 11.802H16.833V13.079m11.313 17.13h6.223c4.604 0 5.069-3.02 5.069-4.463 0-1.341-.838-4.274-4.988-4.274h-6.303v8.737m0 19.04h7.133c5.933 0 6.278-4.173 6.278-5.641 0-1.362-.511-5.574-6.304-5.574h-7.108v11.215" fill="#fff"/></svg>