<svg viewBox="0 0 298 337.5" xmlns="http://www.w3.org/2000/svg"><path d="M27.1 303.8L.1.1h297.4l-27.1 303.6-121.8 33.8-121.5-33.7" fill="#1572b6"/><path d="M148.8 311.7l98.4-27.3L270.4 25H148.8z" fill="#33a9dc"/><path d="M148.8 135h49.3l3.4-38.1h-52.7V59.7h93.3l-.9 10-9.2 102.6h-83.2z" fill="#fff"/><path d="M149 231.7h-.2l-41.4-11.2-2.7-29.7H67.4l5.2 58.5 76.3 21.2h.2v-38.8z" fill="#ebebeb"/><path d="M194.9 170.6l-4.5 49.9-41.5 11.2v38.7l76.3-21.2.6-6.3 6.5-72.4h-37.4z" fill="#fff"/><path d="M148.9 59.6v37.2H59l-.7-8.4-1.8-18.8-.9-10zm-.1 75.4v37.2h-40.9l-.7-8.4-1.8-18.8-.9-10z" fill="#ebebeb"/></svg>