<svg viewBox="0 0 362.7 411.4" xmlns="http://www.w3.org/2000/svg"><path d="M33 370.3L0 0h362.7l-33 370.2-148.6 41.2z" fill="#e44d26"/><path d="M181.4 379.9l120-33.3 28.2-316.3H181.4z" fill="#f16529"/><path d="M181.4 167.6h-60.1l-4.2-46.5h64.3V75.7H67.5l1.1 12.2L79.7 213h101.7zm0 117.9l-.2.1-50.6-13.7-3.2-36.2H81.8l6.3 71.3 93.1 25.8h.2z" fill="#ebebeb"/><path d="M181.2 167.6V213h55.9l-5.2 58.9-50.7 13.7v47.2l93.1-25.8.7-7.7 10.7-119.5 1.1-12.2h-12.3zm0-91.9v45.4h109.7l.9-10.2 2.1-23 1.1-12.2z" fill="#fff"/></svg>