<svg viewBox="0 0 496 496" xmlns="http://www.w3.org/2000/svg"><g fill="#0868ac"><path d="M40.1 119C-3.8 180.6.7 261.5 32.9 327.9c.8 1.6 1.6 3.2 2.4 4.7l1.5 3c.3.6.6 1.1 1 1.7.5 1.1 1.1 2 1.6 3.1 1 1.8 2 3.7 3.1 5.5.5 1 1.1 2 1.7 3l3.6 5.7c.5.9 1.1 1.6 1.6 2.4 1.6 2.6 3.4 5.1 5.2 7.7 0 .1.1.1.1.2l.9 1.2c1.6 2.2 3.2 4.3 4.7 6.5.7.8 1.2 1.5 1.8 2.3 1.4 1.8 2.9 3.7 4.4 5.5.5.7 1.1 1.4 1.7 2 2 2.4 4 4.8 6.2 7.2 0 .1.1.1.1.1.1.1.2.2.2.3 2 2.2 4.1 4.5 6.3 6.7l2 2c1.6 1.7 3.3 3.4 5 5 .7.7 1.4 1.3 2 2 2.2 2.2 4.5 4.3 6.8 6.4l.1.1c.4.3.8.7 1.1 1 2 1.8 4.1 3.6 6.3 5.4.8.7 1.6 1.4 2.6 2.1 1.7 1.4 3.4 2.8 5.2 4.1.9.7 1.8 1.4 2.7 2.2 1.9 1.4 4 2.8 5.9 4.3.7.5 1.4 1.1 2 1.6.2.1.4.3.6.4 1.8 1.3 3.8 2.6 5.7 3.8.9.5 1.6 1.1 2.4 1.6 2.9 1.9 5.9 3.8 8.9 5.6.8.5 1.6.9 2.4 1.4 2.2 1.3 4.4 2.6 6.6 3.8 1.3.7 2.5 1.3 3.6 2 1.6.9 3.2 1.7 4.8 2.6.3.2.7.3 1.1.5.6.3 1.3.7 1.9 1 2.5 1.3 5 2.4 7.5 3.6.5.3 1.1.5 1.6.7 2.9 1.3 5.9 2.6 8.8 3.8.7.3 1.4.6 2.2.9 2.8 1.1 5.6 2.2 8.3 3.2.4.1.7.3 1.1.4 3.1 1.1 6.2 2.2 9.3 3.2.7.2 1.4.5 2.2.7 3.2 1 6.3 2.2 9.5 2.8C420 515.6 482.7 352.5 482.7 352.5c-51.7 65.8-142.5 82.4-228 61.9-3.2-.8-6.4-1.8-9.5-2.8-.8-.3-1.6-.5-2.4-.7-3-1-6.1-2-9.2-3.1-.4-.1-.9-.3-1.3-.5-2.7-1-5.4-2-8.1-3.1-.8-.3-1.4-.6-2.2-.9-3-1.2-5.9-2.4-8.7-3.8-.7-.3-1.2-.5-1.8-.8-2.5-1.2-4.9-2.3-7.4-3.6-.7-.3-1.4-.7-2.2-1.1l-5.7-3c-1.3-.7-2.5-1.3-3.8-2-2.3-1.3-4.5-2.6-6.8-3.9-.7-.5-1.5-.9-2.2-1.3-3-1.8-6-3.7-9-5.5-.8-.5-1.6-1.1-2.4-1.6-2.1-1.4-4.2-2.8-6.3-4.3-.7-.5-1.4-1-2-1.4-2-1.4-4-3-6-4.4-.9-.7-1.8-1.3-2.6-2-1.8-1.4-3.6-2.9-5.3-4.3-.8-.7-1.6-1.3-2.4-2-2.2-1.9-4.5-3.8-6.7-5.8-.2-.2-.5-.4-.7-.7-2.4-2.2-4.7-4.3-7-6.5l-2-2c-1.7-1.6-3.4-3.4-5-5.1-.7-.7-1.4-1.3-2-2-2-2.2-4.1-4.4-6.2-6.6l-.3-.3c-2.2-2.4-4.2-4.8-6.3-7.3-.6-.7-1.1-1.3-1.7-2-1.4-1.9-3-3.8-4.5-5.7-.6-.7-1.1-1.4-1.6-2.1-1.8-2.4-3.6-4.7-5.2-7.1-46.9-65.7-63-155.5-24.1-228.6"/><path d="M174.9 68.1c-31.8 44.6-30.8 104.9-7 152.7 4 8 8.5 15.8 13.6 23.2 4.6 6.8 9.7 14.8 15.9 20.3 2.2 2.5 4.5 4.9 6.8 7.4.7.6 1.2 1.2 1.8 1.8 2.3 2.3 4.7 4.5 7.1 6.8l.3.3c.1 0 .1.1.1.1 2.6 2.4 5.5 4.7 8.2 7 .7.5 1.3 1 1.9 1.5 2.8 2.2 5.7 4.4 8.7 6.5.1.1.2.1.3.2 1.3.9 2.6 1.8 4 2.7.7.4 1.3.9 1.9 1.3 2.1 1.4 4.3 2.8 6.5 4 .3.2.6.4.9.5l5.7 3.3c.7.4 1.4.7 2 1.1 1.3.7 2.6 1.4 4 2.1l.6.3c2.8 1.4 5.5 2.8 8.3 4 .6.3 1.3.5 1.8.8 2.2 1 4.5 1.9 6.8 2.8 1 .4 2 .8 2.9 1.1 2 .8 4.1 1.5 6.3 2.2.9.3 1.8.7 2.8.9 3 1 5.9 2.2 9.1 2.8C457.4 354.4 496 230.6 496 230.6c-34.2 48-99.4 70.3-168.7 51.5-3-.9-6.1-1.8-9.1-2.8-.9-.3-1.8-.6-2.8-.9-2.1-.7-4.3-1.5-6.3-2.2-1-.4-1.9-.7-2.8-1.1-2.3-.9-4.6-1.8-6.8-2.8-.6-.3-1.3-.5-1.8-.8-2.8-1.3-5.7-2.6-8.4-4-1.4-.7-2.8-1.4-4.3-2.2-.8-.4-1.6-.9-2.4-1.3-1.8-1-3.6-2-5.3-3-.4-.3-.9-.5-1.3-.7-2.2-1.3-4.3-2.6-6.5-4-.6-.4-1.3-.9-1.9-1.3-1.4-.9-2.8-1.9-4.1-2.8-3-2-5.9-4.3-8.6-6.5-.7-.5-1.3-1.1-2-1.6-30.1-24.4-53.8-57.4-64.9-94.7-11.6-38.7-8.5-81.9 12.8-116.8"/><path d="M285.6 30c-18.4 27.1-20.2 60.8-7.4 90.7 13.5 31.8 41.1 56.8 73.3 68.6 1.3.5 2.6.9 4 1.4.6.2 1.2.4 1.7.6 1.9.6 3.8 1.3 5.8 1.6 89.1 17.2 113.3-45.8 119.7-55-21.1 30.5-56.8 37.8-100.4 27.2-3.4-.9-7.2-2-10.5-3.2-4.2-1.5-8.4-3.2-12.6-5.2-7.8-3.7-15.1-8.2-22-13.4-39.1-29.6-63.3-86.2-37.9-132.3"/></g></svg>